<svg width="902" height="435" xmlns="http://www.w3.org/2000/svg" xmlns:xlink="http://www.w3.org/1999/xlink" overflow="hidden"><defs><clipPath id="clip0"><rect x="189" y="59" width="902" height="435"/></clipPath><clipPath id="clip1"><rect x="190" y="60" width="900" height="433"/></clipPath><clipPath id="clip2"><rect x="190" y="60" width="900" height="434"/></clipPath><clipPath id="clip3"><rect x="190" y="60" width="900" height="600"/></clipPath></defs><g clip-path="url(#clip0)" transform="translate(-189 -59)"><g clip-path="url(#clip1)"><g clip-path="url(#clip2)"><g clip-path="url(#clip3)"><path d="M0 0 899.012 0 899.012 599.341 0 599.341Z" fill="#FFFFFF" transform="matrix(1.0011 0 0 1 190 60)"/><path d="M0 217.761 37.4588 240.436C74.9176 263.011 149.835 308.361 224.753 342.623 299.671 376.886 374.588 400.26 449.506 370.892 524.424 341.624 599.341 259.715 674.259 252.023 749.176 244.431 824.094 310.958 861.553 344.322L899.012 377.585 899.012 0 861.553 0C824.094 0 749.176 0 674.259 0 599.341 0 524.424 0 449.506 0 374.588 0 299.671 0 224.753 0 149.835 0 74.9176 0 37.4588 0L0 0Z" fill="#4FD6F7" transform="matrix(1.0011 0 0 1 190 60)"/></g></g></g></g></svg>