<svg id="visual" viewBox="0 0 900 600" width="900" height="600" xmlns="http://www.w3.org/2000/svg" xmlns:xlink="http://www.w3.org/1999/xlink" version="1.1"><rect x="0" y="0" width="900" height="600" fill="#001122"></rect><path d="M262 0L274.5 14.3C287 28.7 312 57.3 311.8 85.8C311.7 114.3 286.3 142.7 291.5 171.2C296.7 199.7 332.3 228.3 337.5 257C342.7 285.7 317.3 314.3 295.7 343C274 371.7 256 400.3 252.2 428.8C248.3 457.3 258.7 485.7 278.8 514.2C299 542.7 329 571.3 344 585.7L359 600L0 600L0 585.7C0 571.3 0 542.7 0 514.2C0 485.7 0 457.3 0 428.8C0 400.3 0 371.7 0 343C0 314.3 0 285.7 0 257C0 228.3 0 199.7 0 171.2C0 142.7 0 114.3 0 85.8C0 57.3 0 28.7 0 14.3L0 0Z" fill="#a3fa69"></path><path d="M236 0L245.8 14.3C255.7 28.7 275.3 57.3 271.8 85.8C268.3 114.3 241.7 142.7 233.7 171.2C225.7 199.7 236.3 228.3 237.5 257C238.7 285.7 230.3 314.3 226.7 343C223 371.7 224 400.3 233.7 428.8C243.3 457.3 261.7 485.7 271.5 514.2C281.3 542.7 282.7 571.3 283.3 585.7L284 600L0 600L0 585.7C0 571.3 0 542.7 0 514.2C0 485.7 0 457.3 0 428.8C0 400.3 0 371.7 0 343C0 314.3 0 285.7 0 257C0 228.3 0 199.7 0 171.2C0 142.7 0 114.3 0 85.8C0 57.3 0 28.7 0 14.3L0 0Z" fill="#8aed5d"></path><path d="M193 0L187 14.3C181 28.7 169 57.3 174 85.8C179 114.3 201 142.7 204.3 171.2C207.7 199.7 192.3 228.3 179.8 257C167.3 285.7 157.7 314.3 151.3 343C145 371.7 142 400.3 155.5 428.8C169 457.3 199 485.7 203 514.2C207 542.7 185 571.3 174 585.7L163 600L0 600L0 585.7C0 571.3 0 542.7 0 514.2C0 485.7 0 457.3 0 428.8C0 400.3 0 371.7 0 343C0 314.3 0 285.7 0 257C0 228.3 0 199.7 0 171.2C0 142.7 0 114.3 0 85.8C0 57.3 0 28.7 0 14.3L0 0Z" fill="#6fe051"></path><path d="M119 0L119 14.3C119 28.7 119 57.3 120 85.8C121 114.3 123 142.7 121.5 171.2C120 199.7 115 228.3 115.2 257C115.3 285.7 120.7 314.3 119.3 343C118 371.7 110 400.3 118.8 428.8C127.7 457.3 153.3 485.7 155.2 514.2C157 542.7 135 571.3 124 585.7L113 600L0 600L0 585.7C0 571.3 0 542.7 0 514.2C0 485.7 0 457.3 0 428.8C0 400.3 0 371.7 0 343C0 314.3 0 285.7 0 257C0 228.3 0 199.7 0 171.2C0 142.7 0 114.3 0 85.8C0 57.3 0 28.7 0 14.3L0 0Z" fill="#50d446"></path><path d="M95 0L87.7 14.3C80.3 28.7 65.7 57.3 65.5 85.8C65.3 114.3 79.7 142.7 83.2 171.2C86.7 199.7 79.3 228.3 70.2 257C61 285.7 50 314.3 47.5 343C45 371.7 51 400.3 55.3 428.8C59.7 457.3 62.3 485.7 69.8 514.2C77.3 542.7 89.7 571.3 95.8 585.7L102 600L0 600L0 585.7C0 571.3 0 542.7 0 514.2C0 485.7 0 457.3 0 428.8C0 400.3 0 371.7 0 343C0 314.3 0 285.7 0 257C0 228.3 0 199.7 0 171.2C0 142.7 0 114.3 0 85.8C0 57.3 0 28.7 0 14.3L0 0Z" fill="#24c73b"></path></svg>