<svg id="visual" viewBox="0 0 900 675" width="900" height="675" xmlns="http://www.w3.org/2000/svg" xmlns:xlink="http://www.w3.org/1999/xlink" version="1.1"><rect x="0" y="0" width="900" height="675" fill="#000000"></rect><path d="M507 675L517.2 652.5C527.3 630 547.7 585 531.3 540C515 495 462 450 448.2 405C434.3 360 459.7 315 481.2 270C502.7 225 520.3 180 513 135C505.7 90 473.3 45 457.2 22.5L441 0L900 0L900 22.5C900 45 900 90 900 135C900 180 900 225 900 270C900 315 900 360 900 405C900 450 900 495 900 540C900 585 900 630 900 652.5L900 675Z" fill="#a3fa69"></path><path d="M599 675L595.7 652.5C592.3 630 585.7 585 591 540C596.3 495 613.7 450 598.5 405C583.3 360 535.7 315 521.7 270C507.7 225 527.3 180 529.3 135C531.3 90 515.7 45 507.8 22.5L500 0L900 0L900 22.5C900 45 900 90 900 135C900 180 900 225 900 270C900 315 900 360 900 405C900 450 900 495 900 540C900 585 900 630 900 652.5L900 675Z" fill="#8aed5d"></path><path d="M598 675L593.8 652.5C589.7 630 581.3 585 580.7 540C580 495 587 450 609.5 405C632 360 670 315 677.7 270C685.3 225 662.7 180 649.3 135C636 90 632 45 630 22.5L628 0L900 0L900 22.5C900 45 900 90 900 135C900 180 900 225 900 270C900 315 900 360 900 405C900 450 900 495 900 540C900 585 900 630 900 652.5L900 675Z" fill="#6fe051"></path><path d="M687 675L687.7 652.5C688.3 630 689.7 585 703.5 540C717.3 495 743.7 450 755.5 405C767.3 360 764.7 315 765.5 270C766.3 225 770.7 180 773.2 135C775.7 90 776.3 45 776.7 22.5L777 0L900 0L900 22.5C900 45 900 90 900 135C900 180 900 225 900 270C900 315 900 360 900 405C900 450 900 495 900 540C900 585 900 630 900 652.5L900 675Z" fill="#50d446"></path><path d="M807 675L805.3 652.5C803.7 630 800.3 585 791.5 540C782.7 495 768.3 450 773.5 405C778.7 360 803.3 315 805.2 270C807 225 786 180 785.3 135C784.7 90 804.3 45 814.2 22.5L824 0L900 0L900 22.5C900 45 900 90 900 135C900 180 900 225 900 270C900 315 900 360 900 405C900 450 900 495 900 540C900 585 900 630 900 652.5L900 675Z" fill="#24c73b"></path></svg>