<svg width="737.666" height="594" viewBox="0 0 737.666 594" xmlns="http://www.w3.org/2000/svg" xmlns:xlink="http://www.w3.org/1999/xlink" overflow="hidden"><path d="M499.593 603.574C494.979 592.515 499.115 579.743 509.337 573.489 510.984 572.487 509.478 569.891 507.822 570.898 496.078 577.911 491.431 592.596 497.003 605.088 497.76 606.858 500.345 605.331 499.593 603.574Z" fill="#3F3D56" transform="translate(-231.167 -153)"/><path d="M500.452 607.609C496.405 600.44 497.357 591.862 498.813 584.11 500.332 576.017 502.324 567.801 500.601 559.571 499.819 555.575 497.969 551.865 495.248 548.837 493.937 547.414 491.82 549.539 493.126 550.958 498.215 556.485 498.805 564.503 497.98 571.624 497.006 580.022 494.247 588.206 494.59 596.741 494.679 601.07 495.801 605.315 497.861 609.123 498.304 609.824 499.231 610.033 499.932 609.591 500.599 609.169 500.826 608.303 500.452 607.609Z" fill="#3F3D56" transform="translate(-231.167 -153)"/><path d="M522.167 630.5 471.167 630.5C468.683 630.497 466.67 628.484 466.667 626L466.667 611.02C466.676 603.004 473.172 596.509 481.187 596.5L488.667 596.5C489.495 596.499 490.166 595.828 490.167 595L490.167 588C490.169 586.62 491.287 585.502 492.667 585.5L500.667 585.5C502.047 585.502 503.166 586.62 503.167 588L503.167 595C503.168 595.828 503.839 596.499 504.667 596.5L512.147 596.5C520.163 596.509 526.658 603.004 526.667 611.02L526.667 626C526.664 628.484 524.651 630.497 522.167 630.5Z" fill="#CCCCCC" transform="translate(-231.167 -153)"/><path d="M497.451 540.54C498.525 546.238 497.195 551.273 494.482 551.784 491.768 552.295 488.698 548.09 487.624 542.391 486.55 536.693 489.853 527.216 489.853 527.216 489.853 527.216 496.377 534.841 497.451 540.54Z" fill="#038FEC" transform="translate(-231.167 -153)"/><path d="M518.045 567.052C514.644 571.749 510.074 574.245 507.837 572.625 505.601 571.006 506.544 565.886 509.944 561.188 513.345 556.491 522.497 552.375 522.497 552.375 522.497 552.375 521.445 562.355 518.045 567.052Z" fill="#038FEC" transform="translate(-231.167 -153)"/><path d="M405.593 243.574C400.979 232.515 405.115 219.743 415.337 213.489 416.984 212.487 415.478 209.891 413.822 210.898 402.078 217.911 397.431 232.596 403.003 245.088 403.76 246.858 406.345 245.331 405.593 243.574Z" fill="#3F3D56" transform="translate(-231.167 -153)"/><path d="M406.452 247.609C402.405 240.44 403.357 231.862 404.813 224.11 406.332 216.017 408.324 207.801 406.601 199.571 405.819 195.575 403.969 191.865 401.248 188.837 399.937 187.413 397.82 189.539 399.126 190.958 404.215 196.485 404.805 204.503 403.98 211.624 403.006 220.022 400.247 228.206 400.59 236.741 400.679 241.07 401.801 245.315 403.861 249.123 404.304 249.824 405.231 250.033 405.932 249.591 406.599 249.169 406.826 248.303 406.452 247.609Z" fill="#3F3D56" transform="translate(-231.167 -153)"/><path d="M428.167 270.5 377.167 270.5C374.683 270.497 372.67 268.484 372.667 266L372.667 251.02C372.676 243.004 379.172 236.509 387.187 236.5L394.667 236.5C395.495 236.499 396.166 235.828 396.167 235L396.167 228C396.169 226.62 397.287 225.502 398.667 225.5L406.667 225.5C408.047 225.502 409.166 226.62 409.167 228L409.167 235C409.168 235.828 409.839 236.499 410.667 236.5L418.148 236.5C426.163 236.509 432.658 243.004 432.667 251.02L432.667 266C432.664 268.484 430.651 270.497 428.167 270.5Z" fill="#CCCCCC" transform="translate(-231.167 -153)"/><path d="M403.451 180.54C404.525 186.238 403.195 191.273 400.482 191.784 397.768 192.295 394.698 188.09 393.624 182.391 392.55 176.693 395.853 167.216 395.853 167.216 395.853 167.216 402.377 174.841 403.451 180.54Z" fill="#038FEC" transform="translate(-231.167 -153)"/><path d="M424.045 207.052C420.644 211.749 416.074 214.245 413.837 212.625 411.601 211.006 412.544 205.886 415.944 201.188 419.345 196.491 428.497 192.375 428.497 192.375 428.497 192.375 427.445 202.355 424.045 207.052Z" fill="#038FEC" transform="translate(-231.167 -153)"/><rect x="32" y="272" width="41" height="15" fill="#038FEC"/><rect x="32" y="321" width="41" height="15" fill="#038FEC"/><path d="M554.167 746 248.167 746C238.783 745.99 231.178 738.384 231.167 729L231.167 170C231.178 160.616 238.783 153.011 248.167 153L554.167 153C563.552 153.011 571.157 160.616 571.167 170L571.167 729C571.157 738.384 563.552 745.989 554.167 746ZM248.167 155C239.887 155.009 233.177 161.72 233.167 170L233.167 729C233.177 737.28 239.887 743.991 248.167 744L554.167 744C562.448 743.991 569.158 737.28 569.167 729L569.167 170C569.158 161.72 562.448 155.009 554.167 155Z" fill="#3F3D56" transform="translate(-231.167 -153)"/><rect x="1" y="115.453" width="338" height="2" fill="#3F3D56"/><rect x="1" y="235.484" width="338" height="2" fill="#3F3D56"/><rect x="1" y="355.516" width="338" height="2" fill="#3F3D56"/><rect x="1" y="475.547" width="338" height="2" fill="#3F3D56"/><path d="M301.167 511 267.167 511C264.407 510.997 262.17 508.76 262.167 506L262.167 409C262.17 406.24 264.407 404.003 267.167 404L301.167 404C303.927 404.003 306.164 406.24 306.167 409L306.167 506C306.164 508.76 303.927 510.997 301.167 511ZM267.167 406C265.511 406.002 264.169 407.344 264.167 409L264.167 506C264.169 507.656 265.511 508.998 267.167 509L301.167 509C302.823 508.998 304.165 507.656 304.167 506L304.167 409C304.165 407.344 302.823 406.002 301.167 406Z" fill="#3F3D56" transform="translate(-231.167 -153)"/><rect x="95" y="272" width="41" height="15" fill="#038FEC"/><rect x="95" y="321" width="41" height="15" fill="#038FEC"/><path d="M364.167 511 330.167 511C327.407 510.997 325.17 508.76 325.167 506L325.167 409C325.17 406.24 327.407 404.003 330.167 404L364.167 404C366.927 404.003 369.164 406.24 369.167 409L369.167 506C369.164 508.76 366.927 510.997 364.167 511ZM330.167 406C328.511 406.002 327.169 407.344 327.167 409L327.167 506C327.169 507.656 328.511 508.998 330.167 509L364.167 509C365.823 508.998 367.165 507.656 367.167 506L367.167 409C367.165 407.344 365.823 406.002 364.167 406Z" fill="#3F3D56" transform="translate(-231.167 -153)"/><rect x="195" y="151" width="41" height="15" fill="#038FEC"/><rect x="195" y="200" width="41" height="15" fill="#038FEC"/><path d="M464.167 390 430.167 390C427.407 389.997 425.17 387.76 425.167 385L425.167 288C425.17 285.24 427.407 283.003 430.167 283L464.167 283C466.927 283.003 469.164 285.24 469.167 288L469.167 385C469.164 387.76 466.927 389.997 464.167 390ZM430.167 285C428.511 285.002 427.169 286.344 427.167 288L427.167 385C427.169 386.656 428.511 387.998 430.167 388L464.167 388C465.823 387.998 467.165 386.656 467.167 385L467.167 288C467.165 286.344 465.823 285.002 464.167 285Z" fill="#3F3D56" transform="translate(-231.167 -153)"/><rect x="258" y="151" width="41" height="15" fill="#038FEC"/><rect x="258" y="200" width="41" height="15" fill="#038FEC"/><path d="M527.167 390 493.167 390C490.407 389.997 488.17 387.76 488.167 385L488.167 288C488.17 285.24 490.407 283.003 493.167 283L527.167 283C529.927 283.003 532.164 285.24 532.167 288L532.167 385C532.164 387.76 529.927 389.997 527.167 390ZM493.167 285C491.511 285.002 490.169 286.344 490.167 288L490.167 385C490.169 386.656 491.511 387.998 493.167 388L527.167 388C528.823 387.998 530.165 386.656 530.167 385L530.167 288C530.165 286.344 528.823 285.002 527.167 285Z" fill="#3F3D56" transform="translate(-231.167 -153)"/><rect x="380.405" y="422.774" width="41" height="15" fill="#038FEC" transform="matrix(0.936092 -0.351755 0.351755 0.936092 -356.897 15.5182)"/><rect x="397.641" y="468.642" width="41" height="15" fill="#038FEC" transform="matrix(0.936092 -0.351755 0.351755 0.936092 -371.93 24.5124)"/><path d="M411.311 509.883C409.229 509.879 407.367 508.587 406.633 506.639L372.513 415.838C371.545 413.253 372.852 410.373 375.435 409.399L407.262 397.439C409.846 396.468 412.729 397.775 413.701 400.36 413.701 400.36 413.701 400.361 413.701 400.361L447.821 491.162C448.789 493.747 447.482 496.627 444.9 497.601L444.9 497.601 413.072 509.561C412.51 509.773 411.913 509.882 411.311 509.883ZM409.022 399.118C408.661 399.119 408.303 399.184 407.965 399.312L376.138 411.271C374.589 411.855 373.805 413.584 374.385 415.135L408.505 505.936C409.088 507.486 410.818 508.271 412.368 507.689 412.369 507.689 412.369 507.689 412.369 507.688L444.196 495.729C445.746 495.145 446.53 493.416 445.949 491.865L411.829 401.064C411.389 399.896 410.271 399.121 409.022 399.118Z" fill="#3F3D56" transform="translate(-231.167 -153)"/><rect x="242.405" y="303.774" width="41" height="15" fill="#038FEC" transform="matrix(0.936092 -0.351755 0.351755 0.936092 -323.857 -40.629)"/><rect x="259.641" y="349.642" width="41" height="15" fill="#038FEC" transform="matrix(0.936092 -0.351755 0.351755 0.936092 -338.89 -31.6348)"/><path d="M273.311 390.883C271.229 390.879 269.367 389.587 268.633 387.639L234.513 296.838C233.545 294.253 234.852 291.373 237.435 290.399L269.262 278.439C271.846 277.468 274.729 278.775 275.701 281.36 275.701 281.36 275.701 281.361 275.701 281.361L309.821 372.162C310.789 374.747 309.482 377.627 306.9 378.601L306.9 378.601 275.072 390.561C274.51 390.773 273.913 390.882 273.311 390.883ZM271.022 280.118C270.661 280.119 270.303 280.184 269.965 280.312L238.138 292.271C236.589 292.855 235.805 294.584 236.385 296.135L270.505 386.936C271.088 388.486 272.818 389.271 274.368 388.689 274.369 388.689 274.369 388.689 274.369 388.688L306.196 376.729C307.746 376.145 308.53 374.416 307.949 372.865L273.829 282.064C273.389 280.896 272.271 280.121 271.022 280.118Z" fill="#3F3D56" transform="translate(-231.167 -153)"/><circle cx="627" cy="219" r="31" fill="#2F2E41"/><path d="M720.448 513.471C725.98 515.614 732.202 512.867 734.346 507.335 734.574 506.745 734.75 506.136 734.871 505.515L820.109 451.737 804.594 434.27 725.651 492.66C719.734 491.906 714.325 496.091 713.57 502.008 712.938 506.959 715.782 511.698 720.447 513.471Z" fill="#FFB8B8" transform="translate(-231.167 -153)"/><path d="M802.313 466.034C800.78 466.037 799.351 465.259 798.52 463.971L788.65 448.632C787.356 446.621 787.861 443.95 789.798 442.55L822.828 418.677C829.447 413.892 838.692 415.379 843.477 421.999 848.262 428.618 846.774 437.863 840.155 442.648 839.927 442.812 839.694 442.971 839.458 443.122L804.728 465.327C804.008 465.789 803.169 466.035 802.313 466.034Z" fill="#2F2E41" transform="translate(-231.167 -153)"/><path d="M585.894 580.85 573.635 580.849 567.802 533.561 585.897 533.562 585.894 580.85Z" fill="#FFB8B8"/><path d="M564.877 577.346 588.521 577.346 588.521 577.346 588.521 592.233 588.521 592.233 549.991 592.233 549.991 592.233 549.991 592.233C549.991 584.011 556.656 577.346 564.877 577.346Z" fill="#2F2E41"/><path d="M643.128 571.684 631.324 574.998 612.926 531.047 630.347 526.156 643.128 571.684Z" fill="#FFB8B8"/><path d="M854.962 725.531 878.606 725.531 878.606 725.531 878.606 740.418 878.606 740.418 840.076 740.418 840.076 740.418 840.076 740.418C840.076 732.197 846.741 725.532 854.962 725.532Z" fill="#2F2E41" transform="matrix(0.962784 -0.270271 0.270271 0.962784 -397.288 106.533)"/><path d="M907.327 652.113 859.731 595.942 888.612 560.898C890.193 558.981 893.029 558.708 894.947 560.288 895.176 560.477 895.386 560.688 895.574 560.919L939.275 614.553Z" fill="#038FEC" transform="translate(-231.167 -153)"/><path d="M861.651 596.36 861.651 596.36C862.353 595.098 863.223 593.936 864.238 592.907L891.805 564.96C892.885 563.859 894.34 563.206 895.881 563.13 899.031 562.981 904.196 563.299 905.636 566.755L868.418 597.206Z" fill="#F2F2F2" transform="translate(-231.167 -153)"/><path d="M908.981 663.999C906.859 663.936 904.795 663.282 903.023 662.112L902.892 661.977 859.3 595.308 866.534 594.608 905.3 564.37C907.26 562.842 910.088 563.191 911.617 565.151 911.689 565.244 911.758 565.339 911.822 565.438L954.199 629.575C955.552 631.636 955.001 634.401 952.961 635.786L911.955 663.437C911.009 663.813 909.999 664.004 908.981 663.999Z" fill="#038FEC" transform="translate(-231.167 -153)"/><path d="M893.564 618.394C892.731 618.395 891.952 617.982 891.487 617.291L886.479 609.853C885.709 608.707 886.013 607.154 887.156 606.382L912.848 589.086C913.994 588.318 915.545 588.621 916.318 589.764L921.325 597.202C922.095 598.348 921.792 599.901 920.648 600.673L894.956 617.969C894.545 618.246 894.06 618.394 893.564 618.394Z" fill="#3F3D56" transform="translate(-231.167 -153)"/><path d="M797.029 726.698C794.195 726.688 791.837 724.518 791.591 721.694 789.409 696.909 778.464 571.994 777.263 546.768 775.928 518.738 799.255 474.396 799.491 473.952L799.653 473.647 811.182 475.088 811.182 476.429 822.157 477.72 843.395 479.775 849.475 554.094 852.164 604.496 877.423 707.439C878.018 709.812 876.6 712.222 874.237 712.854L852.253 718.849C849.876 719.487 847.425 718.104 846.741 715.739L826.044 643.032C825.817 642.236 824.987 641.774 824.19 642.001 823.529 642.189 823.081 642.802 823.102 643.489L825.291 714.385C825.313 715.856 824.728 717.271 823.674 718.297 818.634 723.029 805.32 725.556 797.832 726.641 797.566 726.679 797.298 726.698 797.029 726.698Z" fill="#2F2E41" transform="translate(-231.167 -153)"/><path d="M863.086 414.392C859.597 410.756 836.612 415.753 831.509 421.111L796.574 478.217 854.352 488.967 867.117 416.408Z" fill="#038FEC" transform="translate(-231.167 -153)"/><path d="M847.942 559.479C846.697 559.48 845.461 559.274 844.284 558.87 840.927 557.719 836.813 556.514 832.057 555.291 811.223 549.934 803.867 532.781 810.194 504.311L810.354 503.588C816.295 476.581 827.494 451.007 843.311 428.325L845.761 424.806C851.807 416.126 862.45 411.893 872.806 414.05 882.18 415.983 887.213 418.785 887.766 422.378 888.851 429.428 867.912 514.647 858.859 550.96 857.611 555.972 853.107 559.487 847.942 559.479Z" fill="#2F2E41" transform="translate(-231.167 -153)"/><path d="M776.171 548.539C775.626 548.539 775.085 548.455 774.566 548.289L767.813 546.129C765.042 545.241 763.515 542.275 764.403 539.504 764.452 539.349 764.509 539.197 764.573 539.047L800.404 454.943C807.27 438.899 819.273 425.593 834.528 417.116L834.528 417.116C834.975 416.87 835.504 416.821 835.989 416.979 836.435 417.121 836.8 417.445 836.994 417.871 841.208 427.142 818.272 471.015 799.842 506.267 790.404 524.317 782.254 539.907 781.327 544.353 780.817 546.793 778.664 548.541 776.171 548.539Z" fill="#2F2E41" transform="translate(-231.167 -153)"/><path d="M887.026 567.703C891.781 564.155 892.758 557.424 889.21 552.669 888.831 552.162 888.409 551.689 887.947 551.257L887.663 450.473 864.623 454.338 872.158 552.24C868.376 556.853 869.048 563.658 873.66 567.441 877.52 570.606 883.045 570.715 887.026 567.703Z" fill="#FFB8B8" transform="translate(-231.167 -153)"/><path d="M868.266 475.477C865.897 475.476 863.934 473.638 863.778 471.273L861.098 430.607C860.57 422.461 866.736 415.424 874.882 414.877 883.032 414.34 890.075 420.512 890.612 428.663 890.63 428.942 890.641 429.223 890.643 429.503L891.007 470.723C891.025 473.201 889.038 475.229 886.56 475.263L868.321 475.477Z" fill="#2F2E41" transform="translate(-231.167 -153)"/><circle cx="620.614" cy="227.016" r="24.561" fill="#FFB8B8"/><path d="M872.203 397.202C874.035 391.372 875.716 384.499 872.091 379.579 869.479 376.035 864.789 374.663 860.391 374.466 855.992 374.27 851.581 375.016 847.192 374.667 842.802 374.318 838.164 372.585 835.934 368.789 833.043 363.866 835.491 357.085 840.139 353.769 844.787 350.454 850.928 349.991 856.585 350.763 863.743 351.613 870.472 354.623 875.877 359.393 881.135 364.246 884.562 371.241 884.41 378.395 884.257 385.548 880.245 392.672 873.851 395.884" fill="#2F2E41" transform="translate(-231.167 -153)"/><path d="M866.079 343.534C860.199 341.723 857.487 333.949 860.116 328.387 862.746 322.825 869.467 319.912 875.571 320.687 881.674 321.462 887.052 325.378 890.762 330.286 894.471 335.194 896.708 341.045 898.573 346.908 900.438 352.771 901.989 358.76 904.537 364.361 912.764 381.873 929.707 393.668 948.987 395.303 953.116 395.602 957.401 395.388 961.164 393.662 964.927 391.936 968.082 388.457 968.504 384.338 970.646 398.967 962.135 414.514 948.658 420.593 935.18 426.673 917.893 422.762 908.345 411.474 899.014 400.442 897.568 384.868 897.793 370.421 897.854 366.46 898 362.423 896.906 358.616 895.811 354.808 893.221 351.187 889.448 349.978 886.404 349.002 883.107 349.705 879.986 350.397 876.865 351.089 873.552 351.755 870.53 350.712 867.508 349.669 865.075 346.233 866.292 343.277" fill="#2F2E41" transform="translate(-231.167 -153)"/><path d="M963.25 747 699.25 747C698.698 747 698.25 746.552 698.25 746 698.25 745.448 698.698 745 699.25 745L963.25 745C963.802 745 964.25 745.448 964.25 746 964.25 746.552 963.802 747 963.25 747Z" fill="#CCCCCC" transform="translate(-231.167 -153)"/></svg>