<svg width="902" height="320" xmlns="http://www.w3.org/2000/svg" xmlns:xlink="http://www.w3.org/1999/xlink" overflow="hidden"><defs><clipPath id="clip0"><rect x="189" y="341" width="902" height="320"/></clipPath><clipPath id="clip1"><rect x="190" y="342" width="900" height="318"/></clipPath><clipPath id="clip2"><rect x="190" y="342" width="900" height="318"/></clipPath><clipPath id="clip3"><rect x="190" y="60" width="900" height="600"/></clipPath></defs><g clip-path="url(#clip0)" transform="translate(-189 -341)"><g clip-path="url(#clip1)"><g clip-path="url(#clip2)"><g clip-path="url(#clip3)"><path d="M0 0 899.525 0 899.525 599.683 0 599.683Z" fill="#FFFFFF" transform="matrix(1.00053 0 0 1 190 60.3168)"/><path d="M0 360.809 21.4886 360.01C42.9773 359.11 85.9546 357.511 128.732 363.008 171.609 368.505 214.187 381.099 257.064 392.293 299.842 403.487 342.819 413.082 385.596 409.983 428.474 406.785 471.051 390.794 513.928 381.998 556.706 373.103 599.683 371.504 642.461 374.002 685.338 376.501 727.915 383.098 770.793 385.996 813.57 388.795 856.547 387.795 878.036 387.295L899.525 386.796 899.525 600.683 878.036 600.683C856.547 600.683 813.57 600.683 770.793 600.683 727.915 600.683 685.338 600.683 642.461 600.683 599.683 600.683 556.706 600.683 513.928 600.683 471.051 600.683 428.474 600.683 385.596 600.683 342.819 600.683 299.842 600.683 257.064 600.683 214.187 600.683 171.609 600.683 128.732 600.683 85.9546 600.683 42.9773 600.683 21.4886 600.683L0 600.683Z" fill="#4FD6F7" transform="matrix(1.00053 0 0 1 190 60.3168)"/><path d="M0 460.757 21.4886 459.757C42.9773 458.758 85.9546 456.759 128.732 453.261 171.609 449.762 214.187 444.765 257.064 439.768 299.842 434.77 342.819 429.773 385.596 423.776 428.474 417.779 471.051 410.783 513.928 416.48 556.706 422.077 599.683 440.467 642.461 446.764 685.338 453.061 727.915 447.464 770.793 441.767 813.57 436.07 856.547 430.473 878.036 427.574L899.525 424.776 899.525 600.683 878.036 600.683C856.547 600.683 813.57 600.683 770.793 600.683 727.915 600.683 685.338 600.683 642.461 600.683 599.683 600.683 556.706 600.683 513.928 600.683 471.051 600.683 428.474 600.683 385.596 600.683 342.819 600.683 299.842 600.683 257.064 600.683 214.187 600.683 171.609 600.683 128.732 600.683 85.9546 600.683 42.9773 600.683 21.4886 600.683L0 600.683Z" fill="#2ACAFC" transform="matrix(1.00053 0 0 1 190 60.3168)"/><path d="M0 440.767 21.4886 442.966C42.9773 445.065 85.9546 449.463 128.732 455.759 171.609 462.056 214.187 470.451 257.064 468.053 299.842 465.754 342.819 452.761 385.596 457.458 428.474 462.056 471.051 484.444 513.928 491.94 556.706 499.436 599.683 492.04 642.461 486.043 685.338 480.046 727.915 475.449 770.793 477.748 813.57 480.046 856.547 489.441 878.036 494.039L899.525 498.737 899.525 600.683 878.036 600.683C856.547 600.683 813.57 600.683 770.793 600.683 727.915 600.683 685.338 600.683 642.461 600.683 599.683 600.683 556.706 600.683 513.928 600.683 471.051 600.683 428.474 600.683 385.596 600.683 342.819 600.683 299.842 600.683 257.064 600.683 214.187 600.683 171.609 600.683 128.732 600.683 85.9546 600.683 42.9773 600.683 21.4886 600.683L0 600.683Z" fill="#00BCFF" transform="matrix(1.00053 0 0 1 190 60.3168)"/><path d="M0 532.719 21.4886 533.718C42.9773 534.718 85.9546 536.716 128.732 536.217 171.609 535.717 214.187 532.719 257.064 525.422 299.842 518.026 342.819 506.432 385.596 503.434 428.474 500.436 471.051 506.033 513.928 511.23 556.706 516.427 599.683 521.025 642.461 518.426 685.338 515.728 727.915 505.733 770.793 498.237 813.57 490.741 856.547 485.743 878.036 483.245L899.525 480.746 899.525 600.683 878.036 600.683C856.547 600.683 813.57 600.683 770.793 600.683 727.915 600.683 685.338 600.683 642.461 600.683 599.683 600.683 556.706 600.683 513.928 600.683 471.051 600.683 428.474 600.683 385.596 600.683 342.819 600.683 299.842 600.683 257.064 600.683 214.187 600.683 171.609 600.683 128.732 600.683 85.9546 600.683 42.9773 600.683 21.4886 600.683L0 600.683Z" fill="#00AEFF" transform="matrix(1.00053 0 0 1 190 60.3168)"/><path d="M0 561.703 21.4886 558.205C42.9773 554.707 85.9546 547.711 128.732 549.41 171.609 551.009 214.187 561.403 257.064 562.703 299.842 564.002 342.819 556.406 385.596 554.207 428.474 552.008 471.051 555.407 513.928 557.206 556.706 559.005 599.683 559.404 642.461 554.907 685.338 550.409 727.915 541.014 770.793 542.214 813.57 543.413 856.547 555.007 878.036 560.904L899.525 566.701 899.525 600.683 878.036 600.683C856.547 600.683 813.57 600.683 770.793 600.683 727.915 600.683 685.338 600.683 642.461 600.683 599.683 600.683 556.706 600.683 513.928 600.683 471.051 600.683 428.474 600.683 385.596 600.683 342.819 600.683 299.842 600.683 257.064 600.683 214.187 600.683 171.609 600.683 128.732 600.683 85.9546 600.683 42.9773 600.683 21.4886 600.683L0 600.683Z" fill="#009EFF" transform="matrix(1.00053 0 0 1 190 60.3168)"/></g></g></g></g></svg>