<svg id="visual" viewBox="0 0 900 600" width="900" height="600" xmlns="http://www.w3.org/2000/svg" xmlns:xlink="http://www.w3.org/1999/xlink" version="1.1"><rect x="0" y="0" width="900" height="600" fill="#ffffff"></rect><path d="M0 361L21.5 360.2C43 359.3 86 357.7 128.8 363.2C171.7 368.7 214.3 381.3 257.2 392.5C300 403.7 343 413.3 385.8 410.2C428.7 407 471.3 391 514.2 382.2C557 373.3 600 371.7 642.8 374.2C685.7 376.7 728.3 383.3 771.2 386.2C814 389 857 388 878.5 387.5L900 387L900 601L878.5 601C857 601 814 601 771.2 601C728.3 601 685.7 601 642.8 601C600 601 557 601 514.2 601C471.3 601 428.7 601 385.8 601C343 601 300 601 257.2 601C214.3 601 171.7 601 128.8 601C86 601 43 601 21.5 601L0 601Z" fill="#4fd6f7"></path><path d="M0 461L21.5 460C43 459 86 457 128.8 453.5C171.7 450 214.3 445 257.2 440C300 435 343 430 385.8 424C428.7 418 471.3 411 514.2 416.7C557 422.3 600 440.7 642.8 447C685.7 453.3 728.3 447.7 771.2 442C814 436.3 857 430.7 878.5 427.8L900 425L900 601L878.5 601C857 601 814 601 771.2 601C728.3 601 685.7 601 642.8 601C600 601 557 601 514.2 601C471.3 601 428.7 601 385.8 601C343 601 300 601 257.2 601C214.3 601 171.7 601 128.8 601C86 601 43 601 21.5 601L0 601Z" fill="#2acafc"></path><path d="M0 441L21.5 443.2C43 445.3 86 449.7 128.8 456C171.7 462.3 214.3 470.7 257.2 468.3C300 466 343 453 385.8 457.7C428.7 462.3 471.3 484.7 514.2 492.2C557 499.7 600 492.3 642.8 486.3C685.7 480.3 728.3 475.7 771.2 478C814 480.3 857 489.7 878.5 494.3L900 499L900 601L878.5 601C857 601 814 601 771.2 601C728.3 601 685.7 601 642.8 601C600 601 557 601 514.2 601C471.3 601 428.7 601 385.8 601C343 601 300 601 257.2 601C214.3 601 171.7 601 128.8 601C86 601 43 601 21.5 601L0 601Z" fill="#00bcff"></path><path d="M0 533L21.5 534C43 535 86 537 128.8 536.5C171.7 536 214.3 533 257.2 525.7C300 518.3 343 506.7 385.8 503.7C428.7 500.7 471.3 506.3 514.2 511.5C557 516.7 600 521.3 642.8 518.7C685.7 516 728.3 506 771.2 498.5C814 491 857 486 878.5 483.5L900 481L900 601L878.5 601C857 601 814 601 771.2 601C728.3 601 685.7 601 642.8 601C600 601 557 601 514.2 601C471.3 601 428.7 601 385.8 601C343 601 300 601 257.2 601C214.3 601 171.7 601 128.8 601C86 601 43 601 21.5 601L0 601Z" fill="#00aeff"></path><path d="M0 562L21.5 558.5C43 555 86 548 128.8 549.7C171.7 551.3 214.3 561.7 257.2 563C300 564.3 343 556.7 385.8 554.5C428.7 552.3 471.3 555.7 514.2 557.5C557 559.3 600 559.7 642.8 555.2C685.7 550.7 728.3 541.3 771.2 542.5C814 543.7 857 555.3 878.5 561.2L900 567L900 601L878.5 601C857 601 814 601 771.2 601C728.3 601 685.7 601 642.8 601C600 601 557 601 514.2 601C471.3 601 428.7 601 385.8 601C343 601 300 601 257.2 601C214.3 601 171.7 601 128.8 601C86 601 43 601 21.5 601L0 601Z" fill="#009eff"></path></svg>