<svg id="visual" viewBox="0 0 900 600" width="900" height="600" xmlns="http://www.w3.org/2000/svg" xmlns:xlink="http://www.w3.org/1999/xlink" version="1.1"><rect x="0" y="0" width="900" height="600" fill="#FFFFFF"></rect><path d="M0 438L21.5 438.5C43 439 86 440 128.8 435.7C171.7 431.3 214.3 421.7 257.2 432.2C300 442.7 343 473.3 385.8 490.7C428.7 508 471.3 512 514.2 508.5C557 505 600 494 642.8 482.7C685.7 471.3 728.3 459.7 771.2 443.2C814 426.7 857 405.3 878.5 394.7L900 384L900 601L878.5 601C857 601 814 601 771.2 601C728.3 601 685.7 601 642.8 601C600 601 557 601 514.2 601C471.3 601 428.7 601 385.8 601C343 601 300 601 257.2 601C214.3 601 171.7 601 128.8 601C86 601 43 601 21.5 601L0 601Z" fill="#4fd6f7" stroke-linecap="round" stroke-linejoin="miter"></path></svg>