<svg id="visual" viewBox="0 0 900 600" width="900" height="600" xmlns="http://www.w3.org/2000/svg" xmlns:xlink="http://www.w3.org/1999/xlink" version="1.1"><rect x="0" y="0" width="900" height="600" fill="#ffffff"></rect><path d="M0 237L21.5 237.8C43 238.7 86 240.3 128.8 234.8C171.7 229.3 214.3 216.7 257.2 205.5C300 194.3 343 184.7 385.8 187.8C428.7 191 471.3 207 514.2 215.8C557 224.7 600 226.3 642.8 223.8C685.7 221.3 728.3 214.7 771.2 211.8C814 209 857 210 878.5 210.5L900 211L900 0L878.5 0C857 0 814 0 771.2 0C728.3 0 685.7 0 642.8 0C600 0 557 0 514.2 0C471.3 0 428.7 0 385.8 0C343 0 300 0 257.2 0C214.3 0 171.7 0 128.8 0C86 0 43 0 21.5 0L0 0Z" fill="#009eff"></path><path d="M0 137L21.5 138C43 139 86 141 128.8 144.5C171.7 148 214.3 153 257.2 158C300 163 343 168 385.8 174C428.7 180 471.3 187 514.2 181.3C557 175.7 600 157.3 642.8 151C685.7 144.7 728.3 150.3 771.2 156C814 161.7 857 167.3 878.5 170.2L900 173L900 0L878.5 0C857 0 814 0 771.2 0C728.3 0 685.7 0 642.8 0C600 0 557 0 514.2 0C471.3 0 428.7 0 385.8 0C343 0 300 0 257.2 0C214.3 0 171.7 0 128.8 0C86 0 43 0 21.5 0L0 0Z" fill="#00aeff"></path><path d="M0 157L21.5 154.8C43 152.7 86 148.3 128.8 142C171.7 135.7 214.3 127.3 257.2 129.7C300 132 343 145 385.8 140.3C428.7 135.7 471.3 113.3 514.2 105.8C557 98.3 600 105.7 642.8 111.7C685.7 117.7 728.3 122.3 771.2 120C814 117.7 857 108.3 878.5 103.7L900 99L900 0L878.5 0C857 0 814 0 771.2 0C728.3 0 685.7 0 642.8 0C600 0 557 0 514.2 0C471.3 0 428.7 0 385.8 0C343 0 300 0 257.2 0C214.3 0 171.7 0 128.8 0C86 0 43 0 21.5 0L0 0Z" fill="#00bcff"></path><path d="M0 65L21.5 64C43 63 86 61 128.8 61.5C171.7 62 214.3 65 257.2 72.3C300 79.7 343 91.3 385.8 94.3C428.7 97.3 471.3 91.7 514.2 86.5C557 81.3 600 76.7 642.8 79.3C685.7 82 728.3 92 771.2 99.5C814 107 857 112 878.5 114.5L900 117L900 0L878.5 0C857 0 814 0 771.2 0C728.3 0 685.7 0 642.8 0C600 0 557 0 514.2 0C471.3 0 428.7 0 385.8 0C343 0 300 0 257.2 0C214.3 0 171.7 0 128.8 0C86 0 43 0 21.5 0L0 0Z" fill="#2acafc"></path><path d="M0 36L21.5 39.5C43 43 86 50 128.8 48.3C171.7 46.7 214.3 36.3 257.2 35C300 33.7 343 41.3 385.8 43.5C428.7 45.7 471.3 42.3 514.2 40.5C557 38.7 600 38.3 642.8 42.8C685.7 47.3 728.3 56.7 771.2 55.5C814 54.3 857 42.7 878.5 36.8L900 31L900 0L878.5 0C857 0 814 0 771.2 0C728.3 0 685.7 0 642.8 0C600 0 557 0 514.2 0C471.3 0 428.7 0 385.8 0C343 0 300 0 257.2 0C214.3 0 171.7 0 128.8 0C86 0 43 0 21.5 0L0 0Z" fill="#4fd6f7"></path></svg>