<svg id="visual" viewBox="0 0 900 600" width="900" height="600" xmlns="http://www.w3.org/2000/svg" xmlns:xlink="http://www.w3.org/1999/xlink" version="1.1"><rect x="0" y="0" width="900" height="600" fill="#FFFFFF"></rect><path d="M0 160L21.5 159.5C43 159 86 158 128.8 162.3C171.7 166.7 214.3 176.3 257.2 165.8C300 155.3 343 124.7 385.8 107.3C428.7 90 471.3 86 514.2 89.5C557 93 600 104 642.8 115.3C685.7 126.7 728.3 138.3 771.2 154.8C814 171.3 857 192.7 878.5 203.3L900 214L900 0L878.5 0C857 0 814 0 771.2 0C728.3 0 685.7 0 642.8 0C600 0 557 0 514.2 0C471.3 0 428.7 0 385.8 0C343 0 300 0 257.2 0C214.3 0 171.7 0 128.8 0C86 0 43 0 21.5 0L0 0Z" fill="#4fd6f7" stroke-linecap="round" stroke-linejoin="miter"></path></svg>