<svg id="visual" viewBox="0 0 900 600" width="900" height="600" xmlns="http://www.w3.org/2000/svg" xmlns:xlink="http://www.w3.org/1999/xlink" version="1.1"><rect x="0" y="0" width="900" height="600" fill="#0ed8e8"></rect><path d="M0 65L16.7 65.8C33.3 66.7 66.7 68.3 100 68.2C133.3 68 166.7 66 200 73.2C233.3 80.3 266.7 96.7 300 103.7C333.3 110.7 366.7 108.3 400 102.8C433.3 97.3 466.7 88.7 500 86C533.3 83.3 566.7 86.7 600 91.2C633.3 95.7 666.7 101.3 700 104.2C733.3 107 766.7 107 800 103C833.3 99 866.7 91 883.3 87L900 83L900 0L883.3 0C866.7 0 833.3 0 800 0C766.7 0 733.3 0 700 0C666.7 0 633.3 0 600 0C566.7 0 533.3 0 500 0C466.7 0 433.3 0 400 0C366.7 0 333.3 0 300 0C266.7 0 233.3 0 200 0C166.7 0 133.3 0 100 0C66.7 0 33.3 0 16.7 0L0 0Z" fill="#FFFFFF" stroke-linecap="round" stroke-linejoin="miter"></path></svg>