<svg id="visual" viewBox="0 0 900 600" width="900" height="600" xmlns="http://www.w3.org/2000/svg" xmlns:xlink="http://www.w3.org/1999/xlink" version="1.1"><rect x="0" y="0" width="900" height="600" fill="#0ea5e9"></rect><path d="M0 67L21.5 75.3C43 83.7 86 100.3 128.8 104C171.7 107.7 214.3 98.3 257.2 86.3C300 74.3 343 59.7 385.8 53.3C428.7 47 471.3 49 514.2 59.2C557 69.3 600 87.7 642.8 87C685.7 86.3 728.3 66.7 771.2 68.7C814 70.7 857 94.3 878.5 106.2L900 118L900 0L878.5 0C857 0 814 0 771.2 0C728.3 0 685.7 0 642.8 0C600 0 557 0 514.2 0C471.3 0 428.7 0 385.8 0C343 0 300 0 257.2 0C214.3 0 171.7 0 128.8 0C86 0 43 0 21.5 0L0 0Z" fill="#FFFFFF" stroke-linecap="round" stroke-linejoin="miter"></path></svg>