<svg id="visual" viewBox="0 0 900 600" width="900" height="600" xmlns="http://www.w3.org/2000/svg" xmlns:xlink="http://www.w3.org/1999/xlink" version="1.1"><rect x="0" y="0" width="900" height="600" fill="#ffffff"></rect><path d="M0 540L37.5 537.3C75 534.7 150 529.3 225 528.8C300 528.3 375 532.7 450 537.3C525 542 600 547 675 548.8C750 550.7 825 549.3 862.5 548.7L900 548L900 601L862.5 601C825 601 750 601 675 601C600 601 525 601 450 601C375 601 300 601 225 601C150 601 75 601 37.5 601L0 601Z" fill="#4fd6f7" stroke-linecap="round" stroke-linejoin="miter"></path></svg>